HIERARCHY
ROOT Hips
{
  OFFSET 54.8764 84.4731 4.26724
  CHANNELS 6 Xposition Yposition Zposition Zrotation Xrotation Yrotation
  JOINT spine
  {
    OFFSET 0 5.95438 0.342407
    CHANNELS 3 Zrotation Xrotation Yrotation
    JOINT spine1
    {
      OFFSET 0 8.85602 0
      CHANNELS 3 Zrotation Xrotation Yrotation
      JOINT spine2
      {
        OFFSET 0 8.48567 0
        CHANNELS 3 Zrotation Xrotation Yrotation
        JOINT Neck
        {
          OFFSET 0 21.7863 1.0387
          CHANNELS 3 Zrotation Xrotation Yrotation
          JOINT Head
          {
            OFFSET 0 6.5822 0
            CHANNELS 3 Zrotation Xrotation Yrotation
            End Site
            {
              OFFSET 0 15.9326 -5.25436
            }
          }
        }
        JOINT RightShoulder
        {
          OFFSET -3.57307 9.16386 -0.497525
          CHANNELS 3 Zrotation Xrotation Yrotation
          JOINT RightArm
          {
            OFFSET 0 12.0192 0
            CHANNELS 3 Zrotation Xrotation Yrotation
            JOINT RightArmRoll
            {
              OFFSET 0 6.06754 0
              CHANNELS 3 Zrotation Xrotation Yrotation
              JOINT RightForeArm
              {
                OFFSET 0 17.6726 0
                CHANNELS 3 Zrotation Xrotation Yrotation
                JOINT RightForeArmRoll
                {
                  OFFSET 0 6.80872 0
                  CHANNELS 3 Zrotation Xrotation Yrotation
                  JOINT RightHand
                  {
                    OFFSET 0 13.6636 0
                    CHANNELS 3 Zrotation Xrotation Yrotation
                    End Site
                    {
                      OFFSET 0 0 0
                    }
                  }
                }
              }
            }
          }
        }
        JOINT LeftShoulder
        {
          OFFSET 3.57307 9.16386 -0.497525
          CHANNELS 3 Zrotation Xrotation Yrotation
          JOINT LeftArm
          {
            OFFSET 0 12.0192 0
            CHANNELS 3 Zrotation Xrotation Yrotation
            JOINT LeftArmRoll
            {
              OFFSET 0 6.06755 0
              CHANNELS 3 Zrotation Xrotation Yrotation
              JOINT LeftForeArm
              {
                OFFSET 0 17.6726 0
                CHANNELS 3 Zrotation Xrotation Yrotation
                JOINT LeftForeArmRoll
                {
                  OFFSET 0 6.80872 0
                  CHANNELS 3 Zrotation Xrotation Yrotation
                  JOINT LeftHand
                  {
                    OFFSET 0 13.6636 0
                    CHANNELS 3 Zrotation Xrotation Yrotation
                    End Site
                    {
                      OFFSET 0 0 0
                    }
                  }
                }
              }
            }
          }
        }
      }
    }
  }
  JOINT RightUpLeg
  {
    OFFSET -5.27774 -0.967797 -0.811858
    CHANNELS 3 Zrotation Xrotation Yrotation
    JOINT RightUpLegRoll
    {
      OFFSET 0 16.0214 0
      CHANNELS 3 Zrotation Xrotation Yrotation
      JOINT RightLeg
      {
        OFFSET 0 -19.8401 0
        CHANNELS 3 Zrotation Xrotation Yrotation
        JOINT RightLegRoll
        {
          OFFSET 0 19.905 0
          CHANNELS 3 Zrotation Xrotation Yrotation
          JOINT RightFoot
          {
            OFFSET 0 16.5675 0
            CHANNELS 3 Zrotation Xrotation Yrotation
            JOINT RightToeBase
            {
              OFFSET 0 13.8496 0
              CHANNELS 3 Zrotation Xrotation Yrotation
              End Site
              {
                OFFSET 0.00587034 6.70727 -0.773117
              }
            }
          }
        }
      }
    }
  }
  JOINT LeftUpLeg
  {
    OFFSET 5.27774 -0.967797 -0.811858
    CHANNELS 3 Zrotation Xrotation Yrotation
    JOINT LeftUpLegRoll
    {
      OFFSET 0 16.0215 0
      CHANNELS 3 Zrotation Xrotation Yrotation
      JOINT LeftLeg
      {
        OFFSET 0 19.84 0
        CHANNELS 3 Zrotation Xrotation Yrotation
        JOINT LeftLegRoll
        {
          OFFSET 0 20.089 0
          CHANNELS 3 Zrotation Xrotation Yrotation
          JOINT LeftFoot
          {
            OFFSET 0 16.3835 0
            CHANNELS 3 Zrotation Xrotation Yrotation
            JOINT LeftToeBase
            {
              OFFSET 0 13.8496 0
              CHANNELS 3 Zrotation Xrotation Yrotation
              End Site
              {
                OFFSET -0.0263083 6.70727 -0.773117
              }
            }
          }
        }
      }
    }
  }
}
MOTION
Frames: 13
Frame Time: 0.00208333
54.8408 84.441 2.76702 1.04363 -11.4029 -1.47879 0.068276 0.195133 0.0584482 0.136178 4.39315 0.109531 0.135121 6.03821 0.106675 -5.73677 10.2952 0.233916 6.51223 5.93092 -1.3973 74.4396 0.359349 -1.57333 105.219 18.9755 -6.76647 3.19975e-006 2.68051e-007 1.58738e-006 -3.64297 -0.0277911 -1.99262 1.27909e-005 8.17177e-007 -3.01161 8.0301 -4.95139 0.697631 -71.3295 -3.69523 3.17745 -112.027 19.0473 12.1703 -1.35174e-014 6.36111e-015 -3.18055e-015 3.64097 -0.0273306 1.99238 2.00247e-005 -9.98712e-007 3.0116 -8.03008 -4.95138 -0.697628 176.754 -3.741 4.93154 180 7.0151e-015 178.772 177.306 11.2734 179.879 2.54182e-006 4.10444e-006 0.16957 -19.5173 68.9922 20.4003 8.13649 25.2327 -3.48774 179.902 -4.72109 0.159667 4.54188e-006 -4.6773e-006 -1.22874 -1.86852 -10.6065 0.11603 5.32596e-006 4.0825e-006 -0.189207 19.9841 69.5619 -20.9312 -8.13649 25.2327 3.48774 
54.8388 84.4483 2.76807 1.04511 -11.4003 -1.48054 0.0679504 0.194372 0.0584502 0.13556 4.39163 0.109582 0.134501 6.03669 0.106744 -5.74566 10.2891 0.231561 6.52853 5.93639 -1.40204 74.4427 0.359714 -1.57352 105.217 18.9766 -6.76567 3.19975e-006 2.68051e-007 1.58738e-006 -3.64297 -0.0277911 -1.99262 1.27909e-005 8.17177e-007 -3.01161 8.0301 -4.95139 0.697631 -71.3432 -3.68463 3.17332 -112.007 19.049 12.1523 3.57812e-015 3.18055e-015 3.18055e-015 3.64097 -0.0273306 1.99238 2.00247e-005 -9.98712e-007 3.0116 -8.03008 -4.95138 -0.697628 176.751 -3.73607 4.93411 180 7.0151e-015 178.772 177.303 11.2757 179.879 2.54182e-006 4.10444e-006 0.169532 -19.5183 68.9932 20.4013 8.13649 25.2327 -3.48774 179.899 -4.71566 0.16226 4.54188e-006 -4.6773e-006 -1.22874 -1.86749 -10.611 0.116046 5.32596e-006 4.0825e-006 -0.189234 19.9863 69.5641 -20.9335 -8.13649 25.2327 3.48774 
54.797 84.4544 2.80795 1.04662 -11.3977 -1.48226 0.0676233 0.193603 0.0584521 0.134941 4.39009 0.109633 0.133881 6.03515 0.106812 -5.75489 10.2829 0.229195 6.54524 5.94214 -1.4069 74.4462 0.360032 -1.57378 105.216 18.9778 -6.76481 3.19975e-006 2.68051e-007 1.58738e-006 -3.64297 -0.0277911 -1.99262 1.27909e-005 8.17177e-007 -3.01161 8.0301 -4.95139 0.697631 -71.357 -3.67365 3.16901 -111.988 19.0507 12.1345 -5.96354e-015 3.18055e-015 -1.59028e-015 3.64097 -0.0273306 1.99238 2.00247e-005 -9.98712e-007 3.0116 -8.03008 -4.95138 -0.697628 176.747 -3.73118 4.93669 180 7.0151e-015 178.772 177.3 11.2778 179.88 2.54182e-006 4.10444e-006 0.169475 -19.5192 68.9942 20.4023 8.13649 25.2327 -3.48774 179.897 -4.71013 0.164891 4.54188e-006 -4.6773e-006 -1.22874 -1.86645 -10.6156 0.116046 5.32596e-006 4.0825e-006 -0.18924 19.9885 69.5664 -20.9359 -8.13649 25.2327 3.48774 
54.8057 84.4548 2.79999 1.04815 -11.3951 -1.48396 0.0672951 0.192828 0.0584541 0.134322 4.38854 0.109684 0.133261 6.03361 0.106881 -5.76436 10.2766 0.22682 6.56225 5.94809 -1.41184 74.4501 0.360319 -1.5741 105.215 18.9789 -6.76391 3.19975e-006 2.68051e-007 1.58738e-006 -3.64297 -0.0277911 -1.99262 1.27909e-005 8.17177e-007 -3.01161 8.0301 -4.95139 0.697631 -71.3707 -3.66241 3.16457 -111.969 19.0522 12.1169 -1.70955e-014 3.18055e-015 -4.77083e-015 3.64097 -0.0273306 1.99238 2.00247e-005 -9.98712e-007 3.0116 -8.03008 -4.95138 -0.697628 176.744 -3.72632 4.93928 180 7.0151e-015 178.772 177.297 11.2797 179.881 2.54182e-006 4.10444e-006 0.169405 -19.52 68.9951 20.4032 8.13649 25.2327 -3.48774 179.894 -4.70454 0.167548 4.54188e-006 -4.6773e-006 -1.22874 -1.86541 -10.6202 0.116033 5.32596e-006 4.0825e-006 -0.18923 19.9907 69.5686 -20.9382 -8.13649 25.2327 3.48774 
54.8445 84.4483 2.7647 1.04968 -11.3925 -1.48564 0.0669663 0.19205 0.0584561 0.133703 4.38699 0.109735 0.13264 6.03206 0.10695 -5.77398 10.2702 0.224442 6.57943 5.95416 -1.41682 74.4542 0.360586 -1.57445 105.213 18.98 -6.76299 3.19975e-006 2.68051e-007 1.58738e-006 -3.64297 -0.0277911 -1.99262 1.27909e-005 8.17177e-007 -3.01161 8.0301 -4.95139 0.697631 -71.3845 -3.65102 3.16006 -111.949 19.0537 12.0994 -6.75868e-015 -3.18055e-015 -1.59028e-015 3.64097 -0.0273306 1.99238 2.00247e-005 -9.98712e-007 3.0116 -8.03008 -4.95138 -0.697628 176.741 -3.72147 4.94187 180 7.0151e-015 178.772 177.294 11.2816 179.882 2.54182e-006 4.10444e-006 0.169327 -19.5209 68.996 20.4041 8.13649 25.2327 -3.48774 179.891 -4.6989 0.170221 4.54188e-006 -4.6773e-006 -1.22874 -1.86436 -10.6249 0.116014 5.32596e-006 4.0825e-006 -0.189213 19.9929 69.5709 -20.9406 -8.13649 25.2327 3.48774 
54.8299 84.4497 2.77819 1.05122 -11.3899 -1.48732 0.0666373 0.191271 0.0584581 0.133083 4.38543 0.109786 0.132019 6.0305 0.107019 -5.78363 10.2637 0.222062 6.59666 5.96025 -1.42183 74.4583 0.360849 -1.5748 105.212 18.9812 -6.76207 3.19975e-006 2.68051e-007 1.58738e-006 -3.64297 -0.0277911 -1.99262 1.27909e-005 8.17177e-007 -3.01161 8.0301 -4.95139 0.697631 -71.3982 -3.63959 3.15553 -111.93 19.0552 12.0819 7.95139e-015 9.54166e-015 3.18055e-015 3.64097 -0.0273306 1.99238 2.00247e-005 -9.98712e-007 3.0116 -8.03008 -4.95138 -0.697628 176.737 -3.71663 4.94446 180 7.0151e-015 178.772 177.291 11.2835 179.882 2.54182e-006 4.10444e-006 0.169247 -19.5217 68.9969 20.405 8.13649 25.2327 -3.48774 179.888 -4.69325 0.172897 4.54188e-006 -4.6773e-006 -1.22874 -1.86331 -10.6296 0.115994 5.32596e-006 4.0825e-006 -0.189193 19.9951 69.5732 -20.9429 -8.13649 25.2327 3.48774 
54.8372 84.4479 2.76344 1.05275 -11.3873 -1.489 0.0663086 0.190494 0.0584601 0.132464 4.38388 0.109836 0.131398 6.02895 0.107087 -5.7932 10.2574 0.219685 6.6138 5.96629 -1.4268 74.4624 0.361122 -1.57514 105.21 18.9823 -6.76115 3.19975e-006 2.68051e-007 1.58738e-006 -3.64297 -0.0277911 -1.99262 1.27909e-005 8.17177e-007 -3.01161 8.0301 -4.95139 0.697631 -71.412 -3.62823 3.15104 -111.911 19.0567 12.0643 -1.15295e-014 1.27222e-014 -3.18055e-015 3.64097 -0.0273306 1.99238 2.00247e-005 -9.98712e-007 3.0116 -8.03008 -4.95138 -0.697628 176.734 -3.71178 4.94704 180 7.0151e-015 178.772 177.288 11.2854 179.883 2.54182e-006 4.10444e-006 0.169171 -19.5225 68.9978 20.4059 8.13649 25.2327 -3.48774 179.885 -4.68762 0.175566 4.54188e-006 -4.6773e-006 -1.22874 -1.86226 -10.6343 0.115977 5.32596e-006 4.0825e-006 -0.189177 19.9973 69.5754 -20.9453 -8.13649 25.2327 3.48774 
54.8336 84.4477 2.76702 1.05428 -11.3847 -1.4907 0.0659807 0.18972 0.0584621 0.131845 4.38234 0.109887 0.130778 6.02741 0.107156 -5.80261 10.251 0.217313 6.63073 5.97219 -1.43172 74.4662 0.361417 -1.57544 105.209 18.9834 -6.76027 3.19975e-006 2.68051e-007 1.58738e-006 -3.64297 -0.0277911 -1.99262 1.27909e-005 8.17177e-007 -3.01161 8.0301 -4.95139 0.697631 -71.4257 -3.61707 3.14663 -111.891 19.0583 12.0467 9.14409e-015 -3.18055e-015 3.18055e-015 3.64097 -0.0273306 1.99238 2.00247e-005 -9.98712e-007 3.0116 -8.03008 -4.95138 -0.697628 176.73 -3.70691 4.94963 180 7.0151e-015 178.771 177.285 11.2874 179.884 2.54182e-006 4.10444e-006 0.169104 -19.5234 68.9988 20.4068 8.13649 25.2327 -3.48774 179.883 -4.68204 0.178215 4.54188e-006 -4.6773e-006 -1.22874 -1.86122 -10.6389 0.115968 5.32596e-006 4.0825e-006 -0.189172 19.9995 69.5777 -20.9476 -8.13649 25.2327 3.48774 
54.8491 84.4231 2.76881 1.05578 -11.3821 -1.49243 0.0656541 0.188954 0.0584641 0.131227 4.38081 0.109938 0.130158 6.02587 0.107225 -5.81175 10.2449 0.214951 6.64732 5.97785 -1.43654 74.4696 0.361749 -1.57568 105.208 18.9845 -6.75943 3.19975e-006 2.68051e-007 1.58738e-006 -3.64297 -0.0277911 -1.99262 1.27909e-005 8.17177e-007 -3.01161 8.0301 -4.95139 0.697631 -71.4395 -3.6062 3.14238 -111.872 19.06 12.0288 3.97569e-016 3.18055e-015 -0 3.64097 -0.0273306 1.99238 2.00247e-005 -9.98712e-007 3.0116 -8.03008 -4.95138 -0.697628 176.727 -3.70201 4.9522 180 7.0151e-015 178.771 177.282 11.2896 179.884 2.54182e-006 4.10444e-006 0.169053 -19.5243 68.9998 20.4078 8.13649 25.2327 -3.48774 179.88 -4.67655 0.180835 4.54188e-006 -4.6773e-006 -1.22874 -1.86018 -10.6435 0.115972 5.32596e-006 4.0825e-006 -0.189184 20.0017 69.5799 -20.95 -8.13649 25.2327 3.48774 
54.8459 84.4319 2.76719 1.05726 -11.3796 -1.4942 0.0653291 0.188196 0.0584661 0.13061 4.37929 0.109989 0.129539 6.02436 0.107293 -5.8205 10.2389 0.212601 6.66346 5.9832 -1.44124 74.4725 0.362133 -1.57584 105.206 18.9857 -6.75865 3.19975e-006 2.68051e-007 1.58738e-006 -3.64297 -0.0277911 -1.99262 1.27909e-005 8.17177e-007 -3.01161 8.0301 -4.95139 0.697631 -71.4531 -3.59575 3.13832 -111.852 19.0617 12.0107 6.36111e-015 -3.18055e-015 3.18055e-015 3.64097 -0.0273306 1.99238 2.00247e-005 -9.98712e-007 3.0116 -8.03008 -4.95138 -0.697628 176.724 -3.69706 4.95477 180 7.0151e-015 178.771 177.279 11.2919 179.885 2.54182e-006 4.10444e-006 0.169022 -19.5253 69.0008 20.4089 8.13649 25.2327 -3.48774 179.877 -4.67116 0.183412 4.54188e-006 -4.6773e-006 -1.22874 -1.85915 -10.648 0.115995 5.32596e-006 4.0825e-006 -0.189219 20.0039 69.5822 -20.9523 -8.13649 25.2327 3.48774 
54.8404 84.4469 2.76347 1.0587 -11.3771 -1.49601 0.0650064 0.187449 0.058468 0.129993 4.3778 0.110039 0.128922 6.02287 0.107361 -5.82877 10.2331 0.210267 6.679 5.98815 -1.44576 74.4747 0.362581 -1.5759 105.205 18.9868 -6.75795 3.19975e-006 2.68051e-007 1.58738e-006 -3.64297 -0.0277911 -1.99262 1.27909e-005 8.17177e-007 -3.01161 8.0301 -4.95139 0.697631 -71.4668 -3.58583 3.13451 -111.831 19.0636 11.9923 1.11319e-014 3.18055e-015 3.18055e-015 3.64097 -0.0273306 1.99238 2.00247e-005 -9.98712e-007 3.0116 -8.03008 -4.95138 -0.697628 176.72 -3.69207 4.95733 180 7.0151e-015 178.771 177.277 11.2946 179.885 2.54182e-006 4.10444e-006 0.169017 -19.5263 69.0019 20.41 8.13649 25.2327 -3.48774 179.874 -4.66591 0.185936 4.54188e-006 -4.6773e-006 -1.22874 -1.85814 -10.6523 0.116042 5.32596e-006 4.0825e-006 -0.189283 20.0061 69.5844 -20.9547 -8.13649 25.2327 3.48774 
54.8463 84.4451 2.76147 1.06011 -11.3746 -1.49789 0.0646863 0.186717 0.0584699 0.129378 4.37634 0.11009 0.128305 6.02141 0.107429 -5.83646 10.2275 0.207953 6.69383 5.99262 -1.45009 74.4762 0.363107 -1.57583 105.204 18.9879 -6.75735 3.19975e-006 2.68051e-007 1.58738e-006 -3.64297 -0.0277911 -1.99262 1.27909e-005 8.17177e-007 -3.01161 8.0301 -4.95139 0.697631 -71.4804 -3.57654 3.13101 -111.811 19.0656 11.9734 5.1684e-015 6.36111e-015 4.77083e-015 3.64097 -0.0273306 1.99238 2.00247e-005 -9.98712e-007 3.0116 -8.03008 -4.95138 -0.697628 176.717 -3.68701 4.95987 180 7.0151e-015 178.771 177.274 11.2976 179.886 2.54182e-006 4.10444e-006 0.169044 -19.5275 69.0032 20.4112 8.13649 25.2327 -3.48774 179.871 -4.66083 0.188396 4.54188e-006 -4.6773e-006 -1.22874 -1.85714 -10.6565 0.116117 5.32596e-006 4.0825e-006 -0.189384 20.0083 69.5867 -20.957 -8.13649 25.2327 3.48774 
54.8472 84.4424 2.76573 1.06147 -11.3722 -1.49983 0.0643693 0.186 0.0584718 0.128765 4.3749 0.11014 0.127691 6.01997 0.107497 -5.84345 10.2223 0.205662 6.70781 5.99651 -1.45418 74.4767 0.363726 -1.57561 105.203 18.9891 -6.75686 3.19975e-006 2.68051e-007 1.58738e-006 -3.64297 -0.0277911 -1.99262 1.27909e-005 8.17177e-007 -3.01161 8.0301 -4.95139 0.697631 -71.4939 -3.56802 3.12787 -111.789 19.0679 11.9541 3.97569e-016 0 3.18055e-015 3.64097 -0.0273306 1.99238 2.00247e-005 -9.98712e-007 3.0116 -8.03008 -4.95138 -0.697628 176.713 -3.68187 4.9624 180 7.0151e-015 178.771 177.271 11.301 179.887 2.54182e-006 4.10444e-006 0.169109 -19.5287 69.0045 20.4125 8.13649 25.2327 -3.48774 179.869 -4.65596 0.190779 4.54188e-006 -4.6773e-006 -1.22874 -1.85615 -10.6605 0.116226 5.32596e-006 4.0825e-006 -0.189527 20.0105 69.5889 -20.9593 -8.13649 25.2327 3.48774 
